<mxfile
  host="Electron" 
  agent="Mozilla/5.0 (Macintosh; Intel Mac OS X 10_15_7) AppleWebKit/537.36 (KHTML, like Gecko) draw.io/25.0.2 Chrome/128.0.6613.186 Electron/32.2.5 Safari/537.36" 
  version="25.0.2"
  >
  <diagram
    name="-"
    >
    <mxGraphModel
      grid="1" 
      gridSize="10" 
      guides="1" 
      tooltips="1" 
      connect="1" 
      arrows="1" 
      fold="1" 
      page="1" 
      pageScale="1" 
      pageWidth="1" 
      pageHeight="1" 
      math="0" 
      shadow="0"
      >
      <root>
        <mxCell
          id="page"
          />
        <mxCell
          id="root" 
          parent="page"
          />
        <mxCell
          style="verticalAlign=top;aspect=fixed;align=center;spacingLeft=5;spacingRight=5;spacingBottom=5;strokeColor=none;" 
          id="shape_" 
          parent="root" 
          value=" " 
          vertex="1"
          >
          <mxGeometry
            as="geometry" 
            width="102" 
            height="98" 
            x="0" 
            y="0"
            />
          </mxCell>
        <mxCell
          style="rounded=1;whiteSpace=wrap;verticalAlign=top;align=center;sketch=0;html=1;labelPosition=center;verticalLabelPosition=bottom;spacingTop=-6;fontSize=11;fontStyle=1;fontColor=#999999;shape=image;aspect=fixed;imageAspect=0;image=data:image/svg+xml,PHN2ZyB4bWxucz0iaHR0cDovL3d3dy53My5vcmcvMjAwMC9zdmciIGlkPSJzdmc4MTMzMSIgdmVyc2lvbj0iMS4xIiB2aWV3Qm94PSIwIDAgNDM2LjcxNzAxIDM5OS43NTMzNiIgaGVpZ2h0PSIzOTkuNzUzMzZtbSIgd2lkdGg9IjQzNi43MTcwMW1tIj4mI3hhOyAgJiN4YTsgIDxkZWZzIGlkPSJkZWZzODEzMjgiLz4mI3hhOyAgPGcgdHJhbnNmb3JtPSJ0cmFuc2xhdGUoMTExLjg3MDE3LDUxLjExNjc3NykiIGlkPSJsYXllcjEiPiYjeGE7ICAgIDxwYXRoIHRyYW5zZm9ybT0ic2NhbGUoMC4yNjQ1ODMzMykiIGQ9Ik0gMzkyLjQ2MDk0LC0xOTMuMTk3MjcgQSAxNTEuMjE4MzQsMTUxLjIxODM0IDAgMCAwIDI0MS4yNDIxOSwtNDEuOTc4NTE2IDE1MS4yMTgzNCwxNTEuMjE4MzQgMCAwIDAgMzkyLjQ2MDk0LDEwOS4yNDAyMyAxNTEuMjE4MzQsMTUxLjIxODM0IDAgMCAwIDU0My42Nzk2OSwtNDEuOTc4NTE2IDE1MS4yMTgzNCwxNTEuMjE4MzQgMCAwIDAgMzkyLjQ2MDk0LC0xOTMuMTk3MjcgWiBNIDkwNy4yMTg3NSwtMzEuNjk5MjE5IEEgMTUxLjIxODM0LDE1MS4yMTgzNCAwIDAgMCA3NjQuNTUyNzMsNjkuNzA3MDMxIEggNjQ5LjM1NTQ3IEEgNTEuMDI4NzI0LDUxLjAyODcyNCAwIDAgMCA2MDUuMjc3MzQsOTUuMDI3MzQ0IEwgNTEyLjk4MjQyLDI1My4yNTU4NiBIIDI3Mi40NTExNyBMIDE4MC4xNTQzLDk1LjAyNzM0NCBBIDUxLjAyODcyNCw1MS4wMjg3MjQgMCAwIDAgMTM2LjA3ODEyLDY5LjcwNzAzMSBIIDIxLjkyMTg3NSBBIDE1MS4yMTgzNCwxNTEuMjE4MzQgMCAwIDAgLTEyMC40ODgyOCwtMzAuNjgzNTk0IDE1MS4yMTgzNCwxNTEuMjE4MzQgMCAwIDAgLTI3MS43MDcwMywxMjAuNTMzMiAxNTEuMjE4MzQsMTUxLjIxODM0IDAgMCAwIC0xMjAuNDg4MjgsMjcxLjc1MTk1IDE1MS4yMTgzNCwxNTEuMjE4MzQgMCAwIDAgMjEuNjg1NTQ3LDE3MS43NTM5MSBIIDEwNi43NzE0OCBMIDE4Mi4xNDI1OCwzMDAuOTY2OCA2Mi4wMzEyNSw1MDYuNTQ0OTIgSCAtMTI4LjgxODM2IEEgMTUxLjIxODM0LDE1MS4yMTgzNCAwIDAgMCAtMjcxLjU5NzY2LDQwNC44MTQ0NSAxNTEuMjE4MzQsMTUxLjIxODM0IDAgMCAwIC00MjIuODE2NDEsNTU2LjAzMzIgMTUxLjIxODM0LDE1MS4yMTgzNCAwIDAgMCAtMjcxLjU5NzY2LDcwNy4yNTE5NSAxNTEuMjE4MzQsMTUxLjIxODM0IDAgMCAwIC0xMjkuODkyNTgsNjA4LjU5MTggSCA2NC43MDcwMzEgTCAxODMuNzA1MDgsODE3Ljc1MzkxIDEwNi43NzE0OCw5NDkuNjQyNTggSCAyMy42OTMzNTkgQSAxNTEuMjE4MzQsMTUxLjIxODM0IDAgMCAwIC0xMTkuNzg1MTYsODQ1LjkxNDA2IDE1MS4yMTgzNCwxNTEuMjE4MzQgMCAwIDAgLTI3MS4wMDM5MSw5OTcuMTMyODEgMTUxLjIxODM0LDE1MS4yMTgzNCAwIDAgMCAtMTE5Ljc4NTE2LDExNDguMzUxNiAxNTEuMjE4MzQsMTUxLjIxODM0IDAgMCAwIDIxLjIyMDcwMywxMDUxLjY5MTQgSCAxMzYuMDc4MTIgYSA1MS4wMjg3MjQsNTEuMDI4NzI0IDAgMCAwIDQ0LjA3NjE4LC0yNS4zMTI1IEwgMjc0Ljg2OTE0LDg2NC4wMDM5MSBIIDUxMC41NjI1IGwgOTQuNzE0ODQsMTYyLjM3NDk5IGEgNTEuMDI4NzI0LDUxLjAyODcyNCAwIDAgMCA0NC4wNzgxMywyNS4zMTI1IGggMTE2LjI1MzkxIGEgMTUxLjIxODM0LDE1MS4yMTgzNCAwIDAgMCAxNDEuMzQ1Nyw5Ny42Mjg5IEEgMTUxLjIxODM0LDE1MS4yMTgzNCAwIDAgMCAxMDU4LjE3MTksOTk4LjEwMTU2IDE1MS4yMTgzNCwxNTEuMjE4MzQgMCAwIDAgOTA2Ljk1NTA4LDg0Ni44ODQ3NyAxNTEuMjE4MzQsMTUxLjIxODM0IDAgMCAwIDc2My44MTQ0NSw5NDkuNjQyNTggSCA2NzguNjYyMTEgTCA2MDAuNzI0NjEsODE2LjAzNTE2IDcyNC4zMzM5OCw2MDguNTkxOCBIIDkzNC4xMzI4MSBBIDE1MS4yMTgzNCwxNTEuMjE4MzQgMCAwIDAgMTA3Ni41NDg4LDcwOS4yNzkzIDE1MS4yMTgzNCwxNTEuMjE4MzQgMCAwIDAgMTIyNy43Njc2LDU1OC4wNjI1IDE1MS4yMTgzNCwxNTEuMjE4MzQgMCAwIDAgMTA3Ni41NDg4LDQwNi44NDM3NSAxNTEuMjE4MzQsMTUxLjIxODM0IDAgMCAwIDkzNC40Nzg1Miw1MDYuNTQ0OTIgSCA3MjcuMTM0NzcgTCA2MDIuMzM3ODksMzAyLjU5OTYxIDY3OC42NjIxMSwxNzEuNzUzOTEgaCA4Ni43MzgyOCBBIDE1MS4yMTgzNCwxNTEuMjE4MzQgMCAwIDAgOTA3LjIxODc1LDI3MC43MzgyOCAxNTEuMjE4MzQsMTUxLjIxODM0IDAgMCAwIDEwNTguNDM3NSwxMTkuNTE5NTMgMTUxLjIxODM0LDE1MS4yMTgzNCAwIDAgMCA5MDcuMjE4NzUsLTMxLjY5OTIxOSBaIE0gMzkzLjM2NTIzLDEwMTUuMjQ0MSBhIDE1MS4yMTgzNCwxNTEuMjE4MzQgMCAwIDAgLTE1MS4yMTg3NSwxNTEuMjE4OCAxNTEuMjE4MzQsMTUxLjIxODM0IDAgMCAwIDE1MS4yMTg3NSwxNTEuMjE4NyAxNTEuMjE4MzQsMTUxLjIxODM0IDAgMCAwIDE1MS4yMTg3NSwtMTUxLjIxODcgMTUxLjIxODM0LDE1MS4yMTgzNCAwIDAgMCAtMTUxLjIxODc1LC0xNTEuMjE4OCB6IiBzdHlsZT0iY29sb3I6IzAwMDAwMDtmaWxsOiM1OTg2ZjI7ZmlsbC1vcGFjaXR5OjE7c3Ryb2tlLXdpZHRoOjU2LjY5Mjk7c3Ryb2tlLWxpbmVqb2luOnJvdW5kOy1pbmtzY2FwZS1zdHJva2U6bm9uZSIgaWQ9InBhdGg4MTQ1NCIvPiYjeGE7ICA8L2c+JiN4YTs8L3N2Zz4;strokeColor=none;" 
          id="network_intelligence_" 
          parent="shape_" 
          value=" " 
          vertex="1"
          >
          <mxGeometry
            width="42" 
            height="38" 
            as="geometry" 
            x="30" 
            y="30"
            />
          </mxCell>
        </root>
      </mxGraphModel>
    </diagram>
  </mxfile>